<?xml version="1.0" encoding="UTF-8"?>
<svg id="Camada_2" data-name="Camada 2" xmlns="http://www.w3.org/2000/svg" viewBox="0 0 2986.74 448.69">
  <defs>
    <style>
      .cls-1 {
        fill: #474747;
      }

      .cls-2 {
        fill: #92122b;
      }
    </style>
  </defs>
  <g id="Camada_1-2" data-name="Camada 1">
    <g>
      <g>
        <path class="cls-1" d="M1637.18,373.07h13.86v73.71h-13.86l-.58-12.45c-2.58,4.27-6.14,7.74-10.68,10.39-4.54,2.64-9.95,3.98-16.22,3.98s-11.72-1.02-16.99-3.06c-5.29-2.04-9.95-4.87-13.99-8.47-4.04-3.62-7.18-7.79-9.45-12.49-2.25-4.73-3.37-9.8-3.37-15.26s1.1-10.22,3.29-14.88c2.21-4.66,5.27-8.76,9.2-12.28,3.93-3.52,8.49-6.27,13.66-8.26,5.16-2,10.72-2.98,16.67-2.98,6.49,0,12.18,1.37,17.07,4.08,4.89,2.73,8.85,6.27,11.89,10.57l-.5-12.59ZM1609.47,436.68c5.45,0,10.16-1.19,14.16-3.58,4-2.37,7.06-5.62,9.24-9.7,2.16-4.08,3.27-8.58,3.27-13.49s-1.1-9.55-3.29-13.59c-2.21-4.06-5.29-7.26-9.28-9.66-4-2.37-8.68-3.58-14.07-3.58s-10.39,1.21-14.84,3.6c-4.45,2.41-7.99,5.64-10.6,9.7-2.62,4.06-3.91,8.56-3.91,13.53s1.35,9.47,4.04,13.53c2.69,4.06,6.27,7.26,10.72,9.66,4.41,2.39,9.28,3.58,14.57,3.58Z"/>
        <path class="cls-1" d="M1765.01,427.32l12.36,5.97c-3.75,4.66-8.47,8.41-14.24,11.2-5.75,2.81-11.97,4.2-18.69,4.2-7.6,0-14.51-1.75-20.75-5.22-6.24-3.5-11.22-8.16-14.93-14.05-3.71-5.87-5.56-12.36-5.56-19.5,0-5.41,1.06-10.45,3.23-15.15,2.14-4.68,5.1-8.83,8.87-12.39,3.77-3.56,8.16-6.35,13.16-8.37,5-2.02,10.35-3.02,16.01-3.02,6.7,0,12.93,1.39,18.69,4.2,5.75,2.81,10.49,6.56,14.24,11.28l-12.36,5.97c-2.64-2.89-5.77-5.14-9.41-6.7-3.62-1.56-7.35-2.35-11.14-2.35-5.12,0-9.74,1.21-13.91,3.64-4.14,2.44-7.43,5.66-9.87,9.7-2.41,4.04-3.62,8.43-3.62,13.2s1.23,9.16,3.66,13.16c2.46,4,5.75,7.22,9.91,9.62,4.14,2.41,8.76,3.6,13.82,3.6,4.06,0,7.89-.83,11.47-2.5,3.56-1.69,6.6-3.83,9.06-6.49Z"/>
        <path class="cls-1" d="M1899.21,373.07h13.86v73.71h-13.86l-.58-12.45c-2.58,4.27-6.14,7.74-10.68,10.39-4.54,2.64-9.95,3.98-16.22,3.98s-11.72-1.02-16.99-3.06c-5.29-2.04-9.95-4.87-13.99-8.47-4.04-3.62-7.18-7.79-9.45-12.49-2.25-4.73-3.37-9.8-3.37-15.26s1.1-10.22,3.29-14.88c2.21-4.66,5.27-8.76,9.2-12.28,3.93-3.52,8.49-6.27,13.66-8.26,5.16-2,10.72-2.98,16.67-2.98,6.49,0,12.18,1.37,17.07,4.08,4.89,2.73,8.85,6.27,11.89,10.57l-.5-12.59ZM1871.49,436.68c5.45,0,10.16-1.19,14.16-3.58,4-2.37,7.06-5.62,9.24-9.7,2.16-4.08,3.27-8.58,3.27-13.49s-1.1-9.55-3.29-13.59c-2.21-4.06-5.29-7.26-9.28-9.66-4-2.37-8.68-3.58-14.07-3.58s-10.39,1.21-14.84,3.6c-4.45,2.41-7.99,5.64-10.6,9.7-2.62,4.06-3.91,8.56-3.91,13.53s1.35,9.47,4.04,13.53c2.69,4.06,6.27,7.26,10.72,9.66,4.43,2.39,9.31,3.58,14.57,3.58Z"/>
        <path class="cls-1" d="M2011.96,371.01c8.04,0,15.32,1.75,21.9,5.22,6.58,3.5,11.8,8.18,15.72,14.05,3.91,5.87,5.85,12.41,5.85,19.57,0,5.35-1.12,10.39-3.37,15.07s-5.37,8.83-9.37,12.39c-4,3.56-8.62,6.35-13.86,8.37-5.25,2.02-10.87,3.02-16.86,3.02-6.37,0-11.93-1.33-16.63-4.02-4.7-2.69-8.45-6.18-11.26-10.51v12.61h-13.86v-110.58h13.86v49.31c2.81-4.33,6.56-7.83,11.26-10.51,4.7-2.66,10.24-4,16.63-4ZM2011.79,436.6c5.45,0,10.39-1.21,14.84-3.6,4.45-2.41,7.99-5.64,10.64-9.7,2.64-4.06,3.96-8.53,3.96-13.45s-1.35-9.55-4.04-13.59c-2.69-4.06-6.27-7.26-10.72-9.66-4.45-2.39-9.35-3.58-14.68-3.58s-10.08,1.21-14.07,3.6c-4,2.41-7.08,5.64-9.24,9.72-2.16,4.08-3.27,8.58-3.27,13.49s1.08,9.47,3.27,13.53c2.16,4.06,5.27,7.26,9.28,9.66,4.02,2.39,8.68,3.58,14.03,3.58Z"/>
        <path class="cls-1" d="M2177.24,373.07h13.86v73.71h-13.86l-.58-12.45c-2.58,4.27-6.14,7.74-10.68,10.39-4.54,2.64-9.95,3.98-16.22,3.98s-11.72-1.02-16.99-3.06c-5.29-2.04-9.95-4.87-13.99-8.47-4.04-3.62-7.18-7.79-9.45-12.49-2.25-4.73-3.37-9.8-3.37-15.26s1.1-10.22,3.29-14.88c2.21-4.66,5.27-8.76,9.2-12.28,3.93-3.52,8.49-6.27,13.66-8.26,5.16-2,10.72-2.98,16.67-2.98,6.49,0,12.18,1.37,17.07,4.08,4.89,2.73,8.85,6.27,11.89,10.57l-.5-12.59ZM2149.51,436.68c5.45,0,10.16-1.19,14.16-3.58,4-2.37,7.06-5.62,9.24-9.7,2.16-4.08,3.27-8.58,3.27-13.49s-1.1-9.55-3.29-13.59c-2.21-4.06-5.29-7.26-9.28-9.66-4-2.37-8.68-3.58-14.07-3.58s-10.39,1.21-14.84,3.6c-4.45,2.41-7.99,5.64-10.6,9.7-2.62,4.06-3.91,8.56-3.91,13.53s1.35,9.47,4.04,13.53c2.69,4.06,6.27,7.26,10.72,9.66,4.43,2.39,9.3,3.58,14.57,3.58Z"/>
        <path class="cls-1" d="M2248.24,446.78v-73.71h13.86v9.22c2.91-3.43,6.58-6.18,11.01-8.22,4.43-2.04,9.26-3.06,14.49-3.06,6.1,0,11.68,1.33,16.76,3.98,5.06,2.66,9.06,6.16,11.97,10.53,2.91-4.37,6.89-7.89,11.93-10.53,5.04-2.64,10.57-3.98,16.63-3.98s11.84,1.33,16.9,4.02c5.06,2.69,9.1,6.29,12.09,10.8,3,4.52,4.5,9.55,4.5,15.11v45.84h-13.86v-42.9c0-3.64-.98-6.99-2.98-10.1-1.98-3.1-4.64-5.58-7.99-7.45-3.35-1.87-7.08-2.81-11.14-2.81s-7.79.87-11.14,2.62c-3.35,1.75-6.02,4.16-7.99,7.22-1.98,3.08-2.98,6.58-2.98,10.51v42.9h-13.86v-42.9c0-3.93-.98-7.43-2.98-10.51-1.98-3.08-4.66-5.47-8.04-7.22-3.37-1.75-7.1-2.62-11.18-2.62s-7.72.94-11.1,2.81c-3.37,1.87-6.06,4.35-8.04,7.45s-2.98,6.47-2.98,10.1v42.9h-13.91Z"/>
        <path class="cls-1" d="M2471.77,448.69c-7.6,0-14.51-1.75-20.75-5.22-6.24-3.5-11.22-8.16-14.93-14.05-3.71-5.87-5.56-12.36-5.56-19.5,0-5.41,1.06-10.45,3.23-15.15,2.14-4.68,5.1-8.83,8.87-12.39,3.77-3.56,8.16-6.35,13.16-8.37,5-2.02,10.35-3.02,16.01-3.02,6.2,0,11.93,1.12,17.11,3.35,5.2,2.25,9.66,5.35,13.36,9.33,3.71,3.98,6.49,8.6,8.33,13.86,1.85,5.27,2.52,10.89,2.02,16.88h-67.32c.67,4.18,2.21,7.91,4.62,11.18,2.41,3.27,5.52,5.87,9.28,7.79,3.77,1.92,7.95,2.89,12.57,2.96,4.95,0,9.43-1.14,13.45-3.43,4.02-2.29,7.26-5.41,9.74-9.39l14.11,2.96c-3.29,6.54-8.28,11.89-14.93,16.03-6.68,4.12-14.13,6.2-22.38,6.2ZM2444.87,404.69h53.79c-.44-4.12-1.94-7.89-4.45-11.32-2.54-3.41-5.75-6.16-9.66-8.22-3.91-2.06-8.16-3.1-12.78-3.1s-8.85,1-12.7,3.02c-3.85,2.02-7.04,4.73-9.53,8.14-2.52,3.43-4.06,7.26-4.66,11.49Z"/>
        <path class="cls-1" d="M2641.25,400.92v45.84h-13.86v-43.13c0-3.73-1.02-7.12-3.06-10.18-2.04-3.04-4.77-5.47-8.16-7.26-3.41-1.79-7.2-2.69-11.39-2.69s-7.91.9-11.34,2.69c-3.43,1.79-6.18,4.2-8.2,7.26-2.04,3.04-3.06,6.43-3.06,10.18v43.13h-13.86v-73.71h13.86v9.22c2.91-3.43,6.6-6.18,11.05-8.22,4.45-2.04,9.3-3.06,14.53-3.06,6.16,0,11.78,1.33,16.86,4.02,5.08,2.69,9.14,6.29,12.14,10.8,3,4.54,4.5,9.58,4.5,15.11Z"/>
        <path class="cls-1" d="M2741.13,385.45h-18.73l-.08,61.32h-13.86l.08-61.32h-14.2v-12.39h14.2l-.08-23.15h13.86l.08,23.15h18.73v12.39Z"/>
        <path class="cls-1" d="M2832.83,448.69c-7.6,0-14.51-1.75-20.75-5.22-6.24-3.5-11.22-8.16-14.93-14.05-3.71-5.87-5.56-12.36-5.56-19.5,0-5.41,1.06-10.45,3.23-15.15,2.14-4.68,5.1-8.83,8.87-12.39,3.77-3.56,8.16-6.35,13.16-8.37,5-2.02,10.35-3.02,16.01-3.02,7.6,0,14.51,1.75,20.75,5.22,6.24,3.5,11.22,8.18,14.93,14.07,3.71,5.89,5.56,12.43,5.56,19.61,0,5.35-1.06,10.37-3.21,15.03-2.14,4.66-5.1,8.78-8.87,12.34-3.77,3.56-8.14,6.35-13.11,8.37-5.02,2.04-10.35,3.06-16.07,3.06ZM2832.83,436.31c5.16,0,9.83-1.21,13.99-3.64,4.14-2.44,7.43-5.64,9.83-9.66,2.39-4,3.58-8.37,3.58-13.09s-1.23-9.24-3.66-13.26c-2.46-4.04-5.72-7.24-9.87-9.66-4.12-2.41-8.74-3.6-13.86-3.6s-9.83,1.21-13.95,3.64c-4.12,2.44-7.39,5.66-9.83,9.7-2.41,4.04-3.62,8.43-3.62,13.2s1.25,9.37,3.71,13.38c2.48,4,5.81,7.18,9.99,9.51,4.18,2.31,8.74,3.48,13.7,3.48Z"/>
        <path class="cls-1" d="M2954.73,448.17c-4.45-.15-8.78-.9-12.99-2.25-4.2-1.35-7.89-3.21-11.05-5.54-3.16-2.33-5.45-5.02-6.89-8.08l11.89-4.56c.83,1.67,2.31,3.25,4.45,4.73,2.14,1.48,4.62,2.64,7.43,3.54,2.81.9,5.64,1.33,8.49,1.33,3.02,0,5.85-.42,8.49-1.25,2.64-.83,4.79-2.08,6.47-3.73,1.69-1.64,2.52-3.62,2.52-5.93,0-2.46-.92-4.39-2.77-5.79-1.85-1.39-4.16-2.5-6.93-3.31-2.77-.81-5.6-1.58-8.45-2.33-5.66-1.27-10.72-2.81-15.18-4.6-4.45-1.79-7.95-4.08-10.51-6.85-2.56-2.77-3.83-6.33-3.83-10.66,0-4.58,1.42-8.53,4.25-11.87,2.83-3.35,6.56-5.91,11.18-7.74,4.62-1.81,9.58-2.73,14.84-2.73,6.66,0,12.74,1.27,18.24,3.83,5.5,2.56,9.6,6.02,12.28,10.39l-11.14,5.83c-.94-1.77-2.37-3.33-4.29-4.68-1.94-1.35-4.12-2.41-6.6-3.21-2.48-.79-5-1.21-7.6-1.25-3.18-.1-6.18.27-8.95,1.1-2.77.83-5,2.1-6.68,3.79-1.69,1.69-2.52,3.79-2.52,6.31s.9,4.33,2.69,5.6c1.79,1.27,4.12,2.29,7.02,3.06,2.89.77,6.04,1.64,9.45,2.62,5,1.42,9.68,3.08,14.03,4.93,4.35,1.87,7.85,4.2,10.51,6.99,2.66,2.81,3.98,6.27,3.91,10.39,0,4.52-1.52,8.47-4.54,11.82-3.02,3.37-6.95,5.93-11.76,7.7-4.83,1.79-9.97,2.58-15.47,2.37Z"/>
      </g>
      <g>
        <g>
          <path class="cls-2" d="M768.33,280.91c-4.19,0-7.6-3.41-7.6-7.6V17.13l-90.08.1V0h209.24c.95,0,3.36.22,5.37,2.22,1.44,1.44,2.23,3.35,2.23,5.37v8.33c0,2.14-.91,4.19-2.5,5.63-1.4,1.27-3.22,1.97-5.1,1.97-.23,0-.48-.01-.73-.03l-65.39-6.37h-19.6v256.18c0,4.19-3.41,7.6-7.6,7.6h-18.24Z"/>
          <path class="cls-2" d="M1191.98,280.91c-4.19,0-7.6-3.41-7.6-7.6V7.6c0-4.19,3.41-7.6,7.6-7.6h18.24c4.19,0,7.6,3.41,7.6,7.6v256.39h81.6l81.34-6.36c.27-.02.54-.04.8-.04,1.88,0,3.69.7,5.09,1.96,1.59,1.44,2.51,3.5,2.51,5.64v6.4c0,4.4-3.25,9.32-7.6,9.32h-189.58Z"/>
          <path class="cls-2" d="M868.85,280.95c-1.61,0-3.17-.46-4.49-1.32-2.91-1.92-4.31-5.58-3.47-9.11l.06-.26L982.91,6.08c.31-.79,1.22-2.78,3.39-4.29,1.99-1.39,3.98-1.64,4.84-1.7,6.31,0,12.63,0,18.94,0,2.95,0,5.65,1.73,6.89,4.4l122.53,265.34c1.08,2.36.9,5.08-.49,7.26-1.42,2.19-3.81,3.51-6.4,3.51h-19.55c-2.95,0-5.65-1.73-6.89-4.41-12.15-26.3-24.3-52.61-36.45-78.91h-71.86c-4.69-.01-8.53-3.81-8.61-8.37-.09-4.72,3.85-8.75,8.71-8.71h63.94l-70.08-153.72-115.71,250.6-.17.22c-1.76,2.32-4.34,3.64-7.07,3.64Z"/>
          <path class="cls-2" d="M8.45,281.47c-1.8,0-3.49-.53-4.9-1.53-2.69-1.9-4.02-5.37-3.4-8.84l.06-.33L124.03,2.51l.23.06,1.03-.83c.3-.24.62-.46.96-.65l.55-.27c.15-.08.57-.26,1.07-.41l.61-.16c.46-.09.9-.13,1.32-.14l19.79-.03c2.95,0,5.66,1.73,6.9,4.42l53.84,116.59L265.09,2.51l.22.06,1.02-.82c.3-.24.62-.46.96-.65l.57-.28c.22-.12.63-.28,1.06-.4l.61-.17c.41-.07.86-.13,1.32-.14l19.8-.03c2.95,0,5.66,1.73,6.9,4.41l122.7,265.72c1.08,2.37.9,5.09-.5,7.28-1.42,2.2-3.81,3.51-6.4,3.51h-19.59c-2.95,0-5.66-1.73-6.9-4.42l-41.4-89.66L272.35,27.13l-52.35,113.38,59.21,129.7c1.08,2.36.89,5.07-.51,7.27-1.41,2.2-3.81,3.51-6.4,3.51h-19.59c-2.95,0-5.66-1.73-6.9-4.41l-70.79-153.31-43.12-96.69L16.04,277.51l-.2.25c-1.93,2.4-4.55,3.71-7.4,3.71Z"/>
          <g>
            <path class="cls-2" d="M465.14,17.21V7.67c0-4.19,3.41-7.6,7.6-7.6h171.93v17.23l-179.53-.1Z"/>
            <path class="cls-2" d="M472.74,280.98c-4.19,0-7.6-3.41-7.6-7.6v-142.39h171.64l.15.02c4.36.49,7.7,4.11,7.76,8.41.08,4.36-3.27,8.17-7.62,8.68l-.15.02h-138.34v115.73h76.15l87.58-6.36c.27-.03.53-.04.78-.04,1.88,0,3.68.7,5.09,1.96,1.59,1.43,2.51,3.49,2.51,5.64v8.34c0,4.19-3.41,7.6-7.6,7.6h-190.35Z"/>
          </g>
        </g>
        <g>
          <path class="cls-2" d="M1574.33,280.94c-4.23-.11-7.84-3.37-8.4-7.6l-.02-.16V7.66c0-.29.02-.57.06-.85l.06-.44c.11-.64.3-1.27.57-1.86l.25-.46c.32-.6.67-1.03.85-1.25.58-.66,1.06-1.09,1.64-1.48l.21-.13c.52-.3.98-.51,1.51-.7l.23-.07c.6-.17,1.32-.35,2.2-.35h21.95c2.32,0,4.48,1.04,5.93,2.85l195.38,246.26V8.15l.02-.17c.54-4.29,4-7.53,8.22-7.71,4.22,0,7.69,2.53,8.74,6.44l.09.33v.34c-.03,88.97-.07,177.95-.1,266.92-.08.61-.41,2.6-2.13,4.23-2.16,2.06-4.85,1.95-5.32,1.92h-21.92c-2.32,0-4.48-1.04-5.93-2.85l-195.42-247.5v243.74l-.08.31c-.21.69-1.55,4.78-5.45,6.28-1.18.45-2.28.55-3.14.52Z"/>
          <path class="cls-2" d="M2704.46,280.98c-1.93,0-3.75-.39-5.4-1.15-.25-.11-2.32-1.08-4.12-3.01-2.68-2.9-41.49-52.83-73.9-94.71-.55-.67-1.02-1.46-1.37-2.29-.42-1.02-.68-2.1-.75-3.21-.15-3.87-.15-6.92.01-8.77.13-1.54.64-2.78,1.57-3.79,1.16-1.27,2.78-1.97,4.57-1.97l8.21.02c37.2,0,67.47-32.94,67.47-73.42s-30.27-73.4-67.47-73.4h-84.81v258.09c0,4.19-3.41,7.6-7.6,7.6h-18.24c-4.19,0-7.6-3.41-7.6-7.6V7.67c0-4.19,3.41-7.6,7.6-7.6h121.59c51.6,0,93.57,39.75,93.57,88.61,0,42.33-31.87,78.91-75.78,86.98l-4.65.85,3.22,3.47c.87.94,1.7,1.9,2.48,2.89.56.7.96,1.25,1.03,1.34,1.84,2.48,26.37,31.69,70.97,84.5,2.37,2.56,2.74,6.32.96,9.05-1.52,2.31-4.07,3.17-5.95,3.2,0,0-15.93-.06-18.22-.06-3.1,0-5.39.01-6.7.06h-.64s-.03.01-.03.01Z"/>
          <path class="cls-2" d="M2979.14,23.6c-.24,0-.49-.01-.74-.03l-81.5-6.37h-114.93s0-9.53,0-9.53c0-4.19,3.41-7.6,7.6-7.6h189.57c4.19,0,7.6,3.41,7.6,7.6v8.33c0,2.15-.91,4.21-2.51,5.65-1.4,1.26-3.21,1.96-5.09,1.96Z"/>
          <path class="cls-2" d="M2789.57,280.97c-4.19,0-7.6-3.41-7.6-7.6v-142.39h171.65l.14.02c4.36.49,7.7,4.11,7.77,8.41.08,4.36-3.27,8.17-7.62,8.68l-.15.02h-138.34v115.73h81.6l81.34-6.36c.27-.02.54-.04.8-.04,1.88,0,3.68.7,5.09,1.96,1.59,1.43,2.51,3.49,2.51,5.63v8.34c0,4.19-3.41,7.6-7.6,7.6h-189.57Z"/>
          <path class="cls-2" d="M2035.06,266.1l2.28-.21c28.23-2.65,55.12-14.41,75.72-33.11,1.54-1.4,3.05-2.84,4.54-4.32,23.68-23.65,36.72-54.88,36.72-87.94s-13.04-64.3-36.72-87.95c-21.37-21.35-49.88-34.64-80.26-37.43l-2.29-.21V.09l2.68.17c39.62,2.58,76.82,17.27,104.75,41.37,30.69,26.5,47.6,61.62,47.6,98.89s-16.9,72.38-47.6,98.88c-27.96,24.12-65.16,38.82-104.75,41.37l-2.68.17v-14.84Z"/>
          <path class="cls-2" d="M2010.29,280.77c-39.63-2.58-76.83-17.27-104.75-41.37-30.69-26.5-47.6-61.62-47.6-98.88s16.9-72.4,47.6-98.89c27.95-24.13,65.15-38.82,104.75-41.38l2.68-.17v14.85l-2.28.21c-28.22,2.65-55.12,14.4-75.73,33.1-1.53,1.4-3.05,2.84-4.54,4.33-23.68,23.66-36.72,54.89-36.72,87.95s13.04,64.28,36.72,87.94c16.14,16.11,36.3,27.72,58.32,33.58,7.02,1.86,14.4,3.16,21.95,3.86l2.28.21v14.83l-2.68-.17Z"/>
          <path class="cls-2" d="M2260.11,280.98l-18.24-.02c-4.19,0-7.6-3.41-7.6-7.6V7.65c0-4.19,3.41-7.6,7.6-7.6h135.37c43.43,0,78.77,30.41,78.77,67.78,0,23.06-13.45,44.32-35.99,56.88l-4.55,2.53,4.76,2.11c31.2,13.84,50.59,41.18,50.59,71.33,0,44.28-41.98,80.3-93.58,80.3h-117.13ZM2267.72,264.06h98.62c37.82,0,67.45-27.84,67.45-63.38s-30.26-64.51-67.45-64.51h-98.62v127.89ZM2267.72,119.82h98.63c29.02,0,52.63-23.32,52.63-51.99s-23.12-50.85-52.63-50.85h-98.62v102.84Z"/>
        </g>
      </g>
    </g>
  </g>
</svg>