<!DOCTYPE svg PUBLIC "-//W3C//DTD SVG 1.1//EN" "http://www.w3.org/Graphics/SVG/1.1/DTD/svg11.dtd">
<!-- Uploaded to: SVG Repo, www.svgrepo.com, Transformed by: SVG Repo Mixer Tools -->
<svg fill="#0f52ba" width="256px" height="256px" viewBox="0 0 20.00 20.00" xmlns="http://www.w3.org/2000/svg" stroke="#0f52ba">
<g id="SVGRepo_bgCarrier" stroke-width="0"/>
<g id="SVGRepo_tracerCarrier" stroke-linecap="round" stroke-linejoin="round"/>
<g id="SVGRepo_iconCarrier">
<path d="M17 1h-2a1 1 0 0 0-1 1v16.992h4V2a1 1 0 0 0-1-1zm-6 6H9a1 1 0 0 0-1 1v10.992h4V8a1 1 0 0 0-1-1zm-6 6H3a1 1 0 0 0-1 1v4.992h4V14a1 1 0 0 0-1-1z"/>
</g>
</svg>