<!DOCTYPE svg PUBLIC "-//W3C//DTD SVG 1.1//EN" "http://www.w3.org/Graphics/SVG/1.1/DTD/svg11.dtd">
<!-- Uploaded to: SVG Repo, www.svgrepo.com, Transformed by: SVG Repo Mixer Tools -->
<svg width="256px" height="256px" viewBox="-5 -5 30.00 30.00" xmlns="http://www.w3.org/2000/svg" fill="#000000">
<g id="SVGRepo_bgCarrier" stroke-width="0">
<rect x="-5" y="-5" width="30.00" height="30.00" rx="15" fill="#91132A" strokewidth="0"/>
</g>
<g id="SVGRepo_tracerCarrier" stroke-linecap="round" stroke-linejoin="round"/>
<g id="SVGRepo_iconCarrier">
<path fill-rule="evenodd" d="M1.16 16.829l7.498-15c.553-1.106 2.13-1.106 2.683 0l7.498 15A1.5 1.5 0 0117.498 19H2.502a1.5 1.5 0 01-1.342-2.171zM10 7a1 1 0 011 1v3a1 1 0 01-2 0V8a1 1 0 011-1zm1 8a1 1 0 11-2 0 1 1 0 012 0z" fill="#ffffff"/>
</g>
</svg>